<svg height="14px" viewBox="0 0 8 8" version="1.1" xmlns="http://www.w3.org/2000/svg" xmlns:xlink="http://www.w3.org/1999/xlink" xml:space="preserve" style="fill-rule:evenodd;clip-rule:evenodd;stroke-linejoin:round;stroke-miterlimit:1.41421;"><path d="M7.441,1.042c0,-0.575 -0.467,-1.042 -1.042,-1.042l-5.357,0c-0.575,0 -1.042,0.467 -1.042,1.042l0,5.357c0,0.575 0.467,1.042 1.042,1.042l5.357,0c0.575,0 1.042,-0.467 1.042,-1.042l0,-5.357Z" style="fill:none;"/><path d="M1.219,5.465c-0.009,-0.504 -0.004,-3.827 -0.004,-4.564l0.8,-0.801l0.801,0.801l0.004,3.772c0,0.042 0.006,0.083 0.018,0.123c0.036,0.115 0.123,0.21 0.234,0.257c0.044,0.019 0.091,0.029 0.139,0.032c0.368,0.014 0.737,0.014 1.105,0c0.048,-0.003 0.095,-0.013 0.139,-0.032c0.102,-0.043 0.184,-0.126 0.224,-0.229c0.016,-0.041 0.025,-0.085 0.028,-0.13c0.021,-0.528 0.021,-0.577 0,-1.104c-0.003,-0.045 -0.012,-0.089 -0.028,-0.13c-0.038,-0.096 -0.112,-0.176 -0.205,-0.221c-0.037,-0.018 -0.076,-0.03 -0.117,-0.036c-0.013,-0.002 -0.041,-0.004 -0.041,-0.004c0,0 -0.289,-0.001 -0.404,-0.001l0,-1.601l1.142,0c0.142,0.001 0.283,0.024 0.417,0.071c0.238,0.084 0.448,0.241 0.597,0.445c0.072,0.098 0.129,0.207 0.169,0.322c0.044,0.123 0.067,0.253 0.071,0.384c0.017,1.036 0.008,1.593 0,2.63c-0.002,0.136 -0.025,0.271 -0.071,0.4c-0.047,0.134 -0.117,0.259 -0.206,0.369c-0.145,0.181 -0.341,0.32 -0.56,0.398c-0.134,0.047 -0.275,0.07 -0.417,0.071c-0.871,0 -1.742,0.016 -2.613,-0.001c-0.137,-0.004 -0.271,-0.029 -0.399,-0.076c-0.142,-0.052 -0.275,-0.13 -0.389,-0.229c-0.157,-0.136 -0.279,-0.31 -0.353,-0.503c-0.05,-0.132 -0.076,-0.272 -0.081,-0.413Z" style="fill:#004990;"/></svg>