<svg height="14px" viewBox="0 0 8 8" version="1.1" xmlns="http://www.w3.org/2000/svg" xmlns:xlink="http://www.w3.org/1999/xlink" xml:space="preserve" style="fill-rule:evenodd;clip-rule:evenodd;stroke-linejoin:round;stroke-miterlimit:1.41421;"><path d="M7.441,1.042c0,-0.575 -0.467,-1.042 -1.042,-1.042l-5.357,0c-0.575,0 -1.042,0.467 -1.042,1.042l0,5.357c0,0.575 0.467,1.042 1.042,1.042l5.357,0c0.575,0 1.042,-0.467 1.042,-1.042l0,-5.357Z" style="fill:none;"/><path d="M2.815,1.704c-0.005,0.276 -0.002,2.712 0.008,2.988c0.003,0.048 0.013,0.095 0.032,0.139c0.043,0.102 0.126,0.184 0.229,0.224c0.042,0.016 0.085,0.025 0.13,0.028c0.528,0.021 0.583,0.021 1.111,0c0.045,-0.003 0.088,-0.012 0.13,-0.028c0.096,-0.038 0.176,-0.112 0.221,-0.205c0.018,-0.037 0.029,-0.076 0.036,-0.117c0.002,-0.013 0,0.024 0.004,-0.041c0.045,-1.201 0.001,-2.404 0.001,-3.606l0.8,-0.801l0.8,0.801l0,4.344c-0.001,0.154 -0.023,0.283 -0.071,0.417c-0.084,0.238 -0.241,0.448 -0.445,0.597c-0.098,0.072 -0.206,0.129 -0.321,0.169c-0.124,0.044 -0.253,0.067 -0.384,0.071c-1.037,0.017 -1.6,0.008 -2.637,0c-0.136,-0.002 -0.271,-0.025 -0.4,-0.071c-0.134,-0.047 -0.259,-0.117 -0.369,-0.206c-0.181,-0.145 -0.32,-0.341 -0.397,-0.56c-0.048,-0.134 -0.071,-0.275 -0.071,-0.417c0,-0.522 -0.006,-3.204 -0.007,-3.726l1.6,0Z" style="fill:#98892c;"/></svg>