<svg height="14px" viewBox="0 0 8 8" version="1.1" xmlns="http://www.w3.org/2000/svg" xmlns:xlink="http://www.w3.org/1999/xlink" xml:space="preserve" style="fill-rule:evenodd;clip-rule:evenodd;stroke-linejoin:round;stroke-miterlimit:1.41421;"><path d="M7.441,1.042c0,-0.575 -0.467,-1.042 -1.042,-1.042l-5.357,0c-0.575,0 -1.042,0.467 -1.042,1.042l0,5.357c0,0.575 0.467,1.042 1.042,1.042l5.357,0c0.575,0 1.042,-0.467 1.042,-1.042l0,-5.357Z" style="fill:none;"/><path d="M5.771,0.776l1.226,1.029l-1.3,1.672l0,0.007c-0.124,0.137 -0.126,0.336 0,0.478l0,0.007l0.983,1.333l0,1.123l-1.153,0l-1.242,-1.664c-0.019,-0.023 -0.037,-0.046 -0.055,-0.07l-0.006,-0.009l0,0c-0.05,-0.069 -0.095,-0.141 -0.133,-0.217c-0.073,-0.14 -0.124,-0.29 -0.153,-0.445c-0.037,-0.196 -0.037,-0.398 0,-0.594c0.029,-0.155 0.08,-0.305 0.153,-0.445c0.038,-0.076 0.083,-0.148 0.133,-0.217l0,0l0.007,-0.009c0.017,-0.024 0.035,-0.047 0.054,-0.07l1.486,-1.909Z" style="fill:#0076be;"/><path d="M1.67,6.665l-1.226,-1.03l1.3,-1.671l0,-0.007c0.124,-0.137 0.126,-0.336 0,-0.478l0,-0.008l-0.983,-1.332l0,-1.123l1.153,0l1.242,1.664c0.019,0.023 0.037,0.046 0.054,0.07l0.007,0.009l0,0c0.05,0.069 0.095,0.141 0.133,0.217c0.072,0.14 0.124,0.29 0.153,0.445c0.037,0.196 0.037,0.398 0,0.594c-0.029,0.155 -0.081,0.305 -0.153,0.445c-0.038,0.075 -0.083,0.148 -0.133,0.217l0,0l-0.007,0.009c-0.017,0.024 -0.035,0.047 -0.054,0.07l-1.486,1.909Z" style="fill:#0076be;"/></svg>