<svg height="14px" viewBox="0 0 8 8" version="1.1" xmlns="http://www.w3.org/2000/svg" xmlns:xlink="http://www.w3.org/1999/xlink" xml:space="preserve" style="fill-rule:evenodd;clip-rule:evenodd;stroke-linejoin:round;stroke-miterlimit:1.41421;"><path d="M7.441,1.042c0,-0.575 -0.467,-1.042 -1.042,-1.042l-5.357,0c-0.575,0 -1.042,0.467 -1.042,1.042l0,5.357c0,0.575 0.467,1.042 1.042,1.042l5.357,0c0.575,0 1.042,-0.467 1.042,-1.042l0,-5.357Z" style="fill:none;"/><path d="M3.376,6.269l-1.269,0c-0.141,-0.001 -0.282,-0.024 -0.416,-0.071c-0.238,-0.084 -0.448,-0.241 -0.597,-0.445c-0.072,-0.099 -0.129,-0.207 -0.17,-0.322c-0.043,-0.123 -0.066,-0.253 -0.07,-0.384c-0.018,-1.036 -0.008,-1.833 0,-2.87c0.002,-0.136 0.025,-0.271 0.07,-0.4c0.048,-0.134 0.117,-0.259 0.206,-0.369c0.146,-0.181 0.342,-0.32 0.561,-0.398c0.134,-0.047 0.275,-0.07 0.416,-0.071c0.872,0 1.743,-0.016 2.614,0.001c0.136,0.004 0.271,0.029 0.399,0.076c0.142,0.052 0.275,0.13 0.389,0.229c0.156,0.136 0.279,0.31 0.352,0.503c0.051,0.132 0.077,0.272 0.081,0.413c0.01,0.504 0.001,1.009 0.001,1.513c0,0 -0.004,0.766 0.006,1.023c0.003,0.045 0.011,0.089 0.028,0.13c0.038,0.097 0.112,0.176 0.205,0.221c0.037,0.018 0.076,0.03 0.116,0.036c0.014,0.002 0.042,0.005 0.042,0.005c0,0 0.167,0 0.246,0l0.8,0.8l-0.8,0.801l-0.984,0c-0.142,-0.001 -0.283,-0.024 -0.417,-0.071c-0.238,-0.084 -0.448,-0.241 -0.597,-0.445c-0.072,-0.098 -0.129,-0.207 -0.17,-0.322c-0.043,-0.123 -0.066,-0.253 -0.07,-0.384c0,-0.213 -0.006,-1.794 -0.006,-1.794l0,-0.721c0,-0.042 -0.006,-0.083 -0.019,-0.123c-0.035,-0.115 -0.122,-0.21 -0.233,-0.257c-0.045,-0.019 -0.092,-0.029 -0.14,-0.032c-0.368,-0.014 -0.736,-0.014 -1.104,0c-0.048,0.003 -0.095,0.013 -0.14,0.032c-0.101,0.043 -0.183,0.126 -0.223,0.229c-0.017,0.041 -0.026,0.085 -0.028,0.13c-0.021,0.528 -0.021,0.817 0,1.344c0.002,0.045 0.011,0.089 0.028,0.13c0.038,0.096 0.112,0.176 0.205,0.221c0.037,0.018 0.076,0.029 0.116,0.036c0.014,0.002 0.042,0.004 0.042,0.004c0,0 0.075,0.001 0.164,0.001l0,-0.001c0.086,0.001 0.22,0.001 0.366,0.001l0,1.601Z" style="fill:#ca5d27;"/></svg>