<svg height="14px" viewBox="0 0 8 8" version="1.1" xmlns="http://www.w3.org/2000/svg" xmlns:xlink="http://www.w3.org/1999/xlink" xml:space="preserve" style="fill-rule:evenodd;clip-rule:evenodd;stroke-linejoin:round;stroke-miterlimit:1.41421;"><path d="M7.441,1.042c0,-0.575 -0.467,-1.042 -1.042,-1.042l-5.357,0c-0.575,0 -1.042,0.467 -1.042,1.042l0,5.357c0,0.575 0.467,1.042 1.042,1.042l5.357,0c0.575,0 1.042,-0.467 1.042,-1.042l0,-5.357Z" style="fill:none;"/><path d="M2.404,2.432l0,0.001c-0.069,0 -0.88,-0.001 -0.997,-0.001l-0.8,-0.8l0.8,-0.8l2.452,0l0,0c0.008,0 0.017,0 0.033,0.001c0.074,0.002 0.148,0.007 0.221,0.018c0.145,0.022 0.286,0.062 0.421,0.12c0.302,0.129 0.564,0.345 0.748,0.618c0.106,0.157 0.185,0.332 0.234,0.515c0.043,0.159 0.063,0.325 0.059,0.49c-0.005,0.184 -0.041,0.368 -0.104,0.542c-0.071,0.193 -0.176,0.372 -0.309,0.528c-0.096,0.112 -0.205,0.211 -0.326,0.295c-0.039,0.027 -0.078,0.051 -0.119,0.075l0,0l-1.301,0.751l0,0l-0.001,0.001l-0.023,0.013c-0.006,0.005 -0.012,0.01 -0.017,0.016c-0.017,0.019 -0.028,0.042 -0.03,0.068c-0.001,0.011 -0.001,0.022 0.002,0.033c0.003,0.015 0.009,0.03 0.018,0.043c0.022,0.031 0.06,0.05 0.097,0.049l0.003,0l0.011,0l0,0.001c0,0 2.769,-0.001 2.886,-0.001l0.801,0.801l-0.801,0.8l-2.902,0l0,-0.001c-0.158,0 -0.316,-0.021 -0.469,-0.065c-0.374,-0.107 -0.707,-0.342 -0.932,-0.66c-0.095,-0.134 -0.17,-0.281 -0.222,-0.435c-0.058,-0.17 -0.09,-0.349 -0.093,-0.528c-0.003,-0.197 0.028,-0.394 0.092,-0.581c0.07,-0.205 0.18,-0.397 0.321,-0.562c0.096,-0.112 0.206,-0.211 0.326,-0.295c0.015,-0.01 0.03,-0.02 0.045,-0.03l-0.001,-0.001l0.034,-0.02c0.026,-0.015 0.052,-0.031 0.079,-0.045l1.263,-0.729l-0.001,-0.001c0.009,-0.004 0.017,-0.008 0.024,-0.014c0.007,-0.005 0.013,-0.01 0.019,-0.016c0.016,-0.019 0.026,-0.041 0.029,-0.066c0.002,-0.012 0.001,-0.024 -0.002,-0.035c-0.003,-0.015 -0.008,-0.029 -0.017,-0.042c-0.021,-0.032 -0.06,-0.051 -0.098,-0.051l-0.003,0l-0.01,0.001l-0.001,-0.001l-1.439,0Z" style="fill:#00ade6;"/></svg>