<svg height="14px" viewBox="0 0 8 8" version="1.1" xmlns="http://www.w3.org/2000/svg" xmlns:xlink="http://www.w3.org/1999/xlink" xml:space="preserve" style="fill-rule:evenodd;clip-rule:evenodd;stroke-linejoin:round;stroke-miterlimit:1.41421;"><path d="M7.441,1.042c0,-0.575 -0.467,-1.042 -1.042,-1.042l-5.357,0c-0.575,0 -1.042,0.467 -1.042,1.042l0,5.357c0,0.575 0.467,1.042 1.042,1.042l5.357,0c0.575,0 1.042,-0.467 1.042,-1.042l0,-5.357Z" style="fill:none;"/><path d="M3.984,3.452c0.003,-0.001 0.005,-0.002 0.007,-0.002c0.02,-0.003 0.039,-0.008 0.058,-0.017c0.038,-0.018 0.071,-0.049 0.091,-0.087c0.006,-0.013 0.011,-0.027 0.015,-0.041l0.002,0l0.429,-1.178l-0.001,-0.001c0.023,-0.065 0.451,-1.24 0.491,-1.35l1.026,-0.478l0.478,1.026l-0.927,2.548l0,0c-0.017,0.047 -0.036,0.093 -0.058,0.139c-0.064,0.139 -0.146,0.27 -0.244,0.388c-0.144,0.175 -0.322,0.322 -0.521,0.431c-0.18,0.099 -0.378,0.167 -0.581,0.199c-0.094,0.015 -0.189,0.022 -0.285,0.022c-0.162,0.001 -0.324,-0.021 -0.48,-0.063c-0.368,-0.101 -0.7,-0.321 -0.936,-0.621c-0.095,-0.121 -0.175,-0.254 -0.236,-0.395c-0.014,-0.033 -0.028,-0.066 -0.04,-0.1l0,0l-0.298,-0.819l-0.003,0.001l-0.486,-1.335l0.479,-1.026l1.028,0.48l0.776,2.13l0.001,0c0.001,0.004 0.002,0.008 0.004,0.013c0.007,0.022 0.018,0.043 0.032,0.061c0.038,0.048 0.096,0.075 0.155,0.074c0.002,0 0.01,0 0.024,0.001Z" style="fill:#22a285;"/><path d="M5.337,4.919l-0.054,0.2c-0.042,0.218 -0.115,0.431 -0.218,0.628c-0.112,0.217 -0.259,0.417 -0.432,0.589c-0.228,0.225 -0.502,0.404 -0.801,0.521c-0.181,0.07 -0.37,0.119 -0.563,0.143c-0.097,0.012 -0.194,0.018 -0.292,0.019l-0.005,0l-1.322,0l-0.792,-0.793l0.807,-0.807c0,0 2.036,0.001 2.174,-0.002c0.233,-0.004 0.459,-0.015 0.681,-0.075c0.243,-0.066 0.474,-0.175 0.68,-0.319c0.047,-0.033 0.093,-0.067 0.137,-0.104Z" style="fill:#22a285;"/></svg>