<?xml version="1.0" encoding="utf-8"?>
<!-- Generator: Adobe Illustrator 22.1.0, SVG Export Plug-In . SVG Version: 6.00 Build 0)  -->
<svg version="1.1" id="logo" xmlns="http://www.w3.org/2000/svg" xmlns:xlink="http://www.w3.org/1999/xlink" x="0px" y="0px"
	 viewBox="0 0 403.6 205" style="enable-background:new 0 0 403.6 205;" xml:space="preserve">
<style type="text/css">
	.st0{fill:#ED1B33;}
</style>
<g>
	<g>
		<path class="st0" d="M36.9,74.4H23.2l-8.7,37.7H3.9l8.7-37.7H0l1.9-8.3h36.9L36.9,74.4z"/>
		<path class="st0" d="M84.6,66.4l-10.5,45.7H63.5l4.3-18.8h-19l-4.3,18.8H33.8l10.5-45.7H55L50.6,85h19.1L74,66.4H84.6z"/>
		<path class="st0" d="M120,112.1H82l7.5-32.8h10.6L98.8,85h13.4l-1.9,8.3H96.9l-2.4,10.6h27.4L120,112.1z M128.6,74.6h-38l1.9-8.2
			h38L128.6,74.6z"/>
		<path class="st0" d="M170.6,102.4c-0.5,2.1-1,3.7-1.7,5c-0.7,1.2-1.5,2.2-2.6,2.9c-1.1,0.7-2.4,1.2-4,1.4
			c-1.6,0.2-3.7,0.4-6.2,0.4h-18.4c-2.1,0-3.9-0.1-5.3-0.3c-1.4-0.2-2.5-0.5-3.3-0.9c-0.8-0.4-1.4-0.9-1.7-1.6
			c-0.3-0.7-0.5-1.6-0.5-2.6c0-1.2,0.2-2.6,0.6-4.3l6.1-26.4c0.5-2.1,1.1-3.7,1.8-5c0.7-1.3,1.5-2.3,2.6-2.9c1.1-0.7,2.4-1.2,4-1.4
			c1.6-0.2,3.7-0.4,6.1-0.4h18.4c4,0,6.7,0.4,8.3,1.1c1.6,0.7,2.4,2.2,2.4,4.3c0,1.2-0.2,2.7-0.6,4.3L170.6,102.4z M160.9,99.1
			l4.6-19.7c0.2-1.1,0.3-1.9,0.3-2.6c0-0.9-0.3-1.5-1-1.7c-0.7-0.3-2-0.4-4-0.4h-10.4c-1.2,0-2.2,0-3,0.1c-0.8,0.1-1.4,0.3-1.9,0.6
			c-0.5,0.3-0.9,0.8-1.2,1.4c-0.3,0.6-0.5,1.5-0.8,2.6L139,99.1c-0.3,1.3-0.4,2.2-0.4,2.6c0,0.9,0.3,1.5,1,1.7c0.7,0.3,2,0.4,4,0.4
			h10.5c1.2,0,2.2,0,3-0.1c0.8-0.1,1.4-0.3,1.9-0.6c0.5-0.3,0.9-0.8,1.1-1.4C160.3,101.1,160.6,100.2,160.9,99.1z"/>
		<path class="st0" d="M218.6,102.4c-0.5,2.1-1.1,3.7-1.7,5c-0.6,1.3-1.5,2.3-2.6,3c-1.1,0.7-2.4,1.2-4,1.4
			c-1.6,0.2-3.6,0.4-6.1,0.4h-28l7.5-32.8h10.6l-1.3,5.6h13.4c1.3,0,2.3-0.1,3.1-0.2c0.8-0.1,1.4-0.3,1.9-0.6
			c0.5-0.3,0.9-0.8,1.1-1.4c0.3-0.6,0.5-1.5,0.7-2.5l0.3-0.9c0.2-1.1,0.3-1.9,0.3-2.6c0-0.9-0.3-1.5-1-1.7c-0.7-0.3-2-0.4-4-0.4h-24
			l1.9-8.2h28c4,0,6.7,0.4,8.3,1.1c1.6,0.7,2.4,2.1,2.4,4.3c0,0.6-0.1,1.2-0.2,1.9c-0.1,0.7-0.3,1.5-0.5,2.4l-1.7,7.5
			c-0.7,3-2.3,4.9-4.7,5.6c1.6,0.5,2.4,1.8,2.4,3.9c0,0.5-0.1,1.1-0.3,1.7L218.6,102.4z M208.9,99.1l0.3-1c0.2-1.1,0.3-1.9,0.3-2.5
			c0-0.9-0.3-1.5-1-1.8c-0.7-0.3-2-0.4-4-0.4H191l-2.4,10.6h13.4c1.2,0,2.2,0,3-0.1c0.8-0.1,1.4-0.3,1.9-0.6
			c0.5-0.3,0.9-0.8,1.1-1.4C208.3,101.1,208.6,100.2,208.9,99.1z"/>
		<path class="st0" d="M254.3,112.1l-0.3-6.8h-16.6l-3.6,6.8h-10.9l24-45.7h15.3l2.9,45.7H254.3z M241.7,97.1h11.8l-0.9-20.4
			L241.7,97.1z"/>
		<path class="st0" d="M300.7,112.1h-29.4l10.6-46h10.5l-8.6,37.7h18.8L300.7,112.1z"/>
		<path class="st0" d="M347.4,102.4c-0.5,2.1-1,3.7-1.7,5c-0.7,1.2-1.5,2.2-2.6,2.9c-1.1,0.7-2.4,1.2-4,1.4
			c-1.6,0.2-3.7,0.4-6.2,0.4h-28l7.6-32.8h10.6l-5.7,24.5h13.4c1.2,0,2.2,0,3-0.1c0.8-0.1,1.4-0.3,1.9-0.6c0.5-0.3,0.9-0.8,1.1-1.4
			c0.3-0.6,0.5-1.5,0.8-2.6l4.6-19.7c0.1-0.6,0.2-1.1,0.3-1.5c0.1-0.4,0.1-0.8,0.1-1c0-0.9-0.3-1.5-1-1.8c-0.7-0.3-2-0.4-4-0.4
			h-24.1l1.9-8.2h28c4,0,6.7,0.4,8.3,1.1c1.6,0.7,2.4,2.1,2.4,4.3c0,1.2-0.2,2.7-0.6,4.4L347.4,102.4z"/>
	</g>
	<g>
		<path d="M154,131.2h-6c0.1-1.2-0.3-2-1.3-2.4c-0.7-0.3-1.7-0.5-3.1-0.5c-1,0-1.9,0.2-2.7,0.6c-1,0.5-1.5,1.2-1.5,2.1
			c0,0.8,0.7,1.3,2,1.5l6.5,1.1c3.6,0.6,5.4,2,5.4,4.3c0,0.4,0,0.8-0.1,1.3c-0.9,4.5-4.9,6.7-11.8,6.7c-2.9,0-5.1-0.3-6.6-0.9
			c-2.2-0.8-3.3-2.3-3.3-4.4c0-0.5,0.1-1,0.2-1.5h6.1c-0.1,0.2-0.1,0.5-0.1,0.7c0,1.7,1.5,2.5,4.5,2.5c2.8,0,4.4-0.8,4.8-2.5
			c0-0.2,0.1-0.3,0.1-0.5c0-0.5-0.3-0.9-0.8-1.2c-0.4-0.2-1.1-0.4-2.1-0.6l-4.8-0.8c-1.8-0.3-3.1-0.7-4-1.2
			c-1.2-0.7-1.8-1.7-1.8-3.1c0-0.4,0-0.8,0.1-1.3c0.9-4.2,4.6-6.2,11.2-6.2c6.2,0,9.3,1.8,9.3,5.3C154.1,130.5,154,130.8,154,131.2z
			"/>
		<path d="M155.2,135.3c0.6-2.8,1.8-5.1,3.6-6.8c2.6-2.5,6.2-3.7,11-3.7c7,0,10.5,2.6,10.5,7.8c0,0.9-0.1,1.8-0.3,2.8
			c-0.6,2.8-1.8,5.1-3.6,6.8c-2.6,2.5-6.2,3.7-11,3.7c-7,0-10.5-2.6-10.5-7.8C154.9,137.2,155,136.3,155.2,135.3z M161,135.3
			c-0.1,0.6-0.2,1.1-0.2,1.7c0,1.4,0.4,2.6,1.2,3.5c0.9,1,2.3,1.5,4.2,1.5c2.2,0,4.1-0.7,5.6-2.2c1.2-1.2,2.1-2.7,2.5-4.5
			c0.1-0.6,0.2-1.1,0.2-1.7c0-1.4-0.4-2.6-1.2-3.5c-0.9-1-2.3-1.5-4.2-1.5c-2.2,0-4.1,0.7-5.6,2.2C162.2,132,161.4,133.5,161,135.3z
			"/>
		<path d="M180.6,145.3l4.2-19.9h17.8l-0.8,3.8h-12.4l-0.9,4.3h11.6l-0.8,3.8h-11.6l-1.7,8H180.6z"/>
		<path d="M206.1,145.3l3.4-16.1h-7.4l0.8-3.8h20.2l-0.8,3.8H215l-3.4,16.1H206.1z"/>
		<path d="M225.2,145.3l-2.1-19.9h5.4l0.8,14.5h0.1l7.2-14.5h5.4l1,14.5h0.1l6.9-14.5h5.4l-10.5,19.9h-5.6l-1.2-14.2h-0.1l-7.2,14.2
			H225.2z"/>
		<path d="M268.3,145.3l-0.8-4.1h-9.1l-2.5,4.1h-5.8l13-19.9h6.5l4.5,19.9H268.3z M266.8,137.6l-1.5-7.9l-4.8,7.9H266.8z"/>
		<path d="M275.6,145.3l4.2-19.9h14.5c3.6,0,5.4,1.4,5.4,4.1c0,0.4,0,0.8-0.1,1.3c-0.5,2.4-1.9,4-4.3,4.8v0.1c1.2,0.2,1.9,1.2,1.9,3
			c0,0.7-0.1,1.5-0.3,2.3c-0.2,0.9-0.3,1.8-0.3,2.5c0,0.8,0.1,1.4,0.4,1.8h-5.9c-0.1-0.3-0.2-0.7-0.2-1c0-0.5,0.1-1.4,0.4-2.8
			c0.1-0.5,0.2-1,0.2-1.4c0-1.4-0.8-2.1-2.3-2.1h-6.7l-1.6,7.3H275.6z M284.4,129.2l-1.1,5h7.2c0.7,0,1.3-0.2,1.9-0.6
			c0.7-0.5,1.1-1.1,1.3-2c0.1-0.2,0.1-0.4,0.1-0.6c0-1.2-0.8-1.8-2.4-1.8H284.4z"/>
		<path d="M299.4,145.3l4.2-19.9h18.6l-0.8,3.8h-13.2l-0.9,4.1h12.5l-0.8,3.6h-12.5l-1,4.6h13.3l-0.8,3.8H299.4z"/>
	</g>
	<path d="M258.3,176c-55.9,11.8-110.1-3-145.2-34.8c34.1,36.5,91.5,54.3,150.8,41.9c84.3-17.7,140.4-90,125.4-161.4
		c-1.6-7.5-3.9-14.7-6.9-21.6c1.3,3.9,2.4,8,3.3,12.1C400.8,84.6,343.9,158,258.3,176z"/>
	<path class="st0" d="M270.3,194c-55.9,11.8-110.1-3-145.2-34.8c34.1,36.5,91.5,54.3,150.8,41.9c84.3-17.7,140.4-90,125.4-161.4
		c-1.6-7.5-3.9-14.7-6.9-21.6c1.3,3.9,2.4,8,3.3,12.1C412.8,102.6,355.9,176,270.3,194z"/>
</g>
</svg>
